<?xml version="1.0" encoding="UTF-8"?>
<svg xmlns="http://www.w3.org/2000/svg" width="2170" height="725" viewBox="0 0 2170 725" role="img" aria-label="AsooPoint logo with transparent background">
  <title>AsooPoint logo</title>
  <path fill="#2C4083" fill-rule="evenodd" d="
  M 1343 359 L 1337 341 L 1326 325 L 1320 319 L 1307 310 L 1292 304 L 1283 302 L 1274 302 L 1273 301 L 1230 301 L 1229 302 L 1209 302 L 1208 303 L 1155 303 L 1150 305 L 1150 317 L 1152 318 L 1164 318 L 1172 320 L 1176 323 L 1179 330 L 1179 433 L 1177 434 L 1119 381 L 923 185 L 905 169 L 755 315 L 658 406 L 636 425 L 633 429 L 588 471 L 585 470 L 570 424 L 568 421 L 557 387 L 549 367 L 545 352 L 541 344 L 541 341 L 529 305 L 527 302 L 514 302 L 510 308 L 502 330 L 497 340 L 496 345 L 473 401 L 471 409 L 465 422 L 464 427 L 454 450 L 453 455 L 428 518 L 414 544 L 401 556 L 394 559 L 388 560 L 388 572 L 390 573 L 438 573 L 439 572 L 449 572 L 450 573 L 464 572 L 468 573 L 470 572 L 469 569 L 470 561 L 455 556 L 451 552 L 447 544 L 448 526 L 454 504 L 462 482 L 547 482 L 549 484 L 553 498 L 555 499 L 584 472 L 586 472 L 588 474 L 588 477 L 590 480 L 593 491 L 608 530 L 618 548 L 626 556 L 636 559 L 650 559 L 651 558 L 651 507 L 653 505 L 663 504 L 669 506 L 671 522 L 676 537 L 681 545 L 689 553 L 706 561 L 726 560 L 735 555 L 743 547 L 746 541 L 748 533 L 748 524 L 746 516 L 742 509 L 734 501 L 680 466 L 667 454 L 663 448 L 659 436 L 659 424 L 662 413 L 670 400 L 678 392 L 685 387 L 698 381 L 708 378 L 737 377 L 738 378 L 749 379 L 766 385 L 767 386 L 767 440 L 766 441 L 752 442 L 750 440 L 747 421 L 742 410 L 733 400 L 727 396 L 719 393 L 706 393 L 696 398 L 692 403 L 689 418 L 693 429 L 705 441 L 749 469 L 760 477 L 773 489 L 773 472 L 776 457 L 780 445 L 788 429 L 795 419 L 813 400 L 825 391 L 848 380 L 865 376 L 888 376 L 889 377 L 900 378 L 912 382 L 924 388 L 932 394 L 942 404 L 948 412 L 958 433 L 960 444 L 966 431 L 973 420 L 995 397 L 1005 390 L 1024 381 L 1044 376 L 1066 376 L 1087 381 L 1100 387 L 1109 393 L 1125 410 L 1134 426 L 1137 435 L 1141 455 L 1141 475 L 1140 476 L 1139 488 L 1134 505 L 1130 512 L 1130 514 L 1122 528 L 1115 537 L 1098 554 L 1082 565 L 1072 570 L 1148 570 L 1149 569 L 1149 557 L 1150 556 L 1160 555 L 1172 552 L 1176 549 L 1178 545 L 1179 540 L 1179 437 L 1181 436 L 1217 469 L 1218 469 L 1218 454 L 1219 453 L 1250 459 L 1269 459 L 1270 458 L 1286 456 L 1298 452 L 1318 440 L 1329 429 L 1338 414 L 1342 403 L 1343 393 L 1344 392 L 1345 376 L 1344 375 Z
  M 1444 379 L 1433 378 L 1432 377 L 1416 377 L 1396 381 L 1378 389 L 1358 403 L 1349 412 L 1336 429 L 1327 449 L 1322 471 L 1322 498 L 1323 499 L 1324 509 L 1330 527 L 1340 544 L 1352 557 L 1362 564 L 1374 570 L 1392 575 L 1415 576 L 1431 573 L 1445 568 L 1465 556 L 1484 538 L 1493 525 L 1502 507 L 1508 481 L 1508 452 L 1505 437 L 1499 421 L 1491 408 L 1477 394 L 1466 387 Z
  M 1767 402 L 1753 388 L 1747 385 L 1733 381 L 1716 381 L 1698 386 L 1680 395 L 1664 407 L 1662 406 L 1662 385 L 1659 382 L 1601 393 L 1600 394 L 1600 405 L 1601 406 L 1614 407 L 1619 409 L 1623 413 L 1625 418 L 1625 541 L 1622 549 L 1614 555 L 1605 557 L 1592 557 L 1591 556 L 1586 556 L 1579 553 L 1575 549 L 1572 541 L 1572 511 L 1571 510 L 1572 508 L 1571 506 L 1571 501 L 1572 500 L 1572 385 L 1569 383 L 1565 383 L 1548 389 L 1508 398 L 1508 410 L 1509 411 L 1518 411 L 1527 413 L 1531 416 L 1533 421 L 1533 541 L 1531 548 L 1525 554 L 1521 556 L 1511 557 L 1505 559 L 1505 570 L 1506 571 L 1686 571 L 1688 569 L 1688 558 L 1687 557 L 1674 556 L 1670 554 L 1664 548 L 1662 544 L 1662 539 L 1661 538 L 1661 429 L 1669 421 L 1676 416 L 1691 408 L 1699 406 L 1714 406 L 1723 410 L 1729 415 L 1736 427 L 1738 435 L 1738 542 L 1735 550 L 1732 553 L 1726 556 L 1711 558 L 1710 562 L 1711 570 L 1712 571 L 1800 571 L 1802 569 L 1802 559 L 1801 557 L 1792 557 L 1784 554 L 1778 548 L 1776 543 L 1776 538 L 1775 537 L 1775 425 L 1771 410 Z
  M 840 398 L 830 403 L 820 412 L 812 424 L 806 440 L 804 449 L 803 466 L 804 467 L 804 477 L 806 487 L 810 500 L 817 515 L 827 529 L 837 539 L 848 547 L 856 551 L 872 555 L 889 554 L 895 552 L 905 547 L 915 538 L 923 526 L 929 510 L 931 501 L 932 485 L 931 484 L 930 467 L 925 450 L 920 439 L 911 425 L 899 412 L 887 403 L 872 397 L 862 396 L 861 395 L 855 395 Z
  M 1022 397 L 1006 405 L 994 418 L 987 432 L 983 448 L 983 476 L 984 477 L 985 487 L 991 504 L 1000 520 L 1005 527 L 1019 541 L 1036 551 L 1046 554 L 1059 555 L 1060 554 L 1071 553 L 1086 545 L 1097 533 L 1104 520 L 1108 507 L 1109 491 L 1110 490 L 1109 472 L 1106 459 L 1100 443 L 1089 425 L 1071 407 L 1059 400 L 1046 396 L 1034 395 L 1033 396 Z
  M 1395 397 L 1411 396 L 1420 398 L 1432 403 L 1442 410 L 1452 420 L 1462 434 L 1470 450 L 1474 462 L 1476 478 L 1477 479 L 1477 501 L 1476 502 L 1475 512 L 1471 523 L 1463 536 L 1453 546 L 1437 554 L 1432 555 L 1412 554 L 1403 551 L 1390 543 L 1377 530 L 1371 522 L 1361 503 L 1357 491 L 1353 471 L 1353 455 L 1356 439 L 1360 428 L 1367 416 L 1378 405 Z
  M 1838 341 L 1822 350 L 1820 353 L 1813 376 L 1808 385 L 1803 390 L 1796 394 L 1790 396 L 1785 396 L 1781 398 L 1781 409 L 1783 411 L 1807 411 L 1808 412 L 1808 538 L 1809 539 L 1809 547 L 1812 557 L 1817 565 L 1824 571 L 1834 575 L 1845 575 L 1855 572 L 1870 564 L 1894 545 L 1889 534 L 1877 542 L 1863 549 L 1853 548 L 1847 541 L 1846 530 L 1845 529 L 1845 501 L 1846 500 L 1845 499 L 1845 431 L 1846 430 L 1845 429 L 1845 413 L 1847 411 L 1884 411 L 1887 405 L 1892 399 L 1892 395 L 1891 394 L 1878 394 L 1877 393 L 1872 393 L 1871 394 L 1848 393 L 1845 390 L 1845 371 L 1846 370 L 1845 369 L 1846 367 L 1845 365 L 1845 355 L 1846 354 L 1845 343 L 1842 341 Z
  M 1221 319 L 1234 318 L 1235 317 L 1254 317 L 1274 322 L 1281 326 L 1289 334 L 1296 345 L 1300 357 L 1301 367 L 1302 368 L 1302 389 L 1299 403 L 1294 415 L 1288 423 L 1281 430 L 1272 436 L 1257 440 L 1242 440 L 1224 436 L 1218 433 L 1218 323 Z
  M 1218 473 L 1218 540 L 1219 544 L 1223 550 L 1233 554 L 1250 556 L 1251 557 L 1251 570 L 1323 570 L 1224 477 Z
  M 506 367 L 509 370 L 516 393 L 518 396 L 533 440 L 538 451 L 542 465 L 541 466 L 470 466 L 469 462 L 475 449 L 484 423 L 495 397 L 500 380 Z
  M 625 573 L 572 573 L 571 572 L 563 572 L 562 571 L 562 561 L 570 559 L 572 556 L 572 552 L 554 502 L 481 571 L 481 573 Z
  M 1001 570 L 988 563 L 971 546 L 962 532 L 954 509 L 948 522 L 933 542 L 917 556 L 902 566 L 895 569 L 894 571 L 1001 571 Z
  M 1539 310 L 1531 317 L 1527 326 L 1527 337 L 1529 343 L 1535 350 L 1543 354 L 1552 355 L 1553 354 L 1558 354 L 1564 351 L 1570 345 L 1574 336 L 1574 327 L 1571 319 L 1563 311 L 1556 308 L 1545 308 Z
  M 737 570 L 738 572 L 767 572 L 768 573 L 789 573 L 790 572 L 793 573 L 807 573 L 808 572 L 818 573 L 821 572 L 821 570 L 817 569 L 806 562 L 789 545 L 778 524 L 777 524 L 776 530 L 772 540 L 764 551 L 752 562 Z
  M 651 566 L 651 572 L 670 572 L 652 565 Z
  "/>
</svg>
