<svg xmlns="http://www.w3.org/2000/svg" width="532" height="171" viewBox="0 0 532 171" role="img" aria-label="Asoosoft logo">
  <title>Asoosoft logo</title>
  <path fill="#2e4180" fill-rule="evenodd" d="M 139 163 L 140 164 L 143 163 L 154 163 L 155 164 L 157 163 L 170 163 L 167 162 L 160 156 L 154 146 L 151 153 L 143 161 Z M 243 163 L 239 161 L 231 153 L 226 143 L 226 140 L 225 140 L 221 148 L 211 158 L 207 161 L 202 163 L 212 163 L 213 164 L 216 163 L 227 163 L 228 164 L 230 163 L 241 163 L 242 164 Z M 252 94 L 244 100 L 239 110 L 238 124 L 239 125 L 239 130 L 241 136 L 247 146 L 256 154 L 264 157 L 275 156 L 283 150 L 288 140 L 288 136 L 289 135 L 289 125 L 288 124 L 288 120 L 286 114 L 280 104 L 273 97 L 264 93 L 256 93 L 255 94 Z M 182 93 L 175 96 L 170 101 L 167 106 L 166 112 L 165 113 L 165 127 L 166 128 L 166 132 L 172 144 L 181 153 L 191 157 L 198 157 L 205 154 L 211 148 L 214 142 L 214 139 L 215 138 L 215 122 L 210 109 L 202 99 L 196 95 L 190 93 Z M 512 62 L 507 63 L 494 69 L 493 68 L 493 52 L 491 51 L 478 51 L 470 55 L 462 63 L 455 76 L 454 82 L 451 89 L 447 93 L 445 94 L 441 94 L 440 95 L 441 98 L 451 98 L 452 99 L 452 152 L 447 158 L 441 159 L 440 160 L 440 163 L 475 163 L 476 164 L 478 163 L 478 160 L 477 159 L 471 158 L 466 153 L 466 148 L 465 147 L 465 100 L 467 98 L 493 98 L 494 99 L 494 157 L 495 158 L 495 161 L 498 165 L 504 166 L 510 164 L 517 160 L 525 153 L 525 149 L 524 148 L 521 151 L 512 156 L 510 156 L 507 153 L 507 100 L 509 98 L 527 98 L 527 94 L 517 94 L 512 92 L 508 87 L 507 84 L 507 73 L 508 70 L 512 66 Z M 475 58 L 479 58 L 485 63 L 487 73 L 492 73 L 493 72 L 495 73 L 495 86 L 489 93 L 486 94 L 472 93 L 465 85 L 465 71 L 466 70 L 466 67 L 467 65 Z M 4 163 L 34 163 L 38 159 L 34 159 L 32 158 L 28 154 L 27 151 L 29 137 L 32 128 L 34 126 L 67 126 L 69 128 L 69 130 L 42 157 L 41 157 L 42 159 L 42 163 L 52 163 L 53 164 L 55 163 L 66 163 L 67 164 L 74 163 L 74 159 L 77 158 L 78 156 L 75 150 L 75 147 L 73 144 L 69 130 L 81 118 L 84 120 L 91 142 L 96 152 L 101 157 L 102 157 L 102 139 L 104 137 L 109 137 L 111 141 L 112 148 L 118 156 L 123 159 L 133 159 L 139 155 L 141 151 L 141 143 L 139 139 L 135 135 L 113 121 L 108 116 L 105 111 L 105 101 L 110 93 L 116 88 L 120 86 L 129 85 L 130 84 L 141 85 L 142 86 L 148 87 L 150 89 L 150 110 L 148 112 L 144 112 L 141 108 L 141 103 L 139 99 L 131 92 L 123 92 L 121 93 L 118 97 L 118 103 L 122 109 L 132 116 L 135 117 L 151 129 L 151 124 L 152 123 L 153 115 L 155 112 L 156 108 L 160 102 L 169 93 L 175 89 L 185 85 L 197 84 L 198 85 L 203 85 L 211 88 L 221 96 L 226 104 L 227 110 L 229 111 L 230 107 L 236 99 L 245 91 L 252 87 L 258 85 L 270 84 L 271 85 L 280 86 L 286 89 L 296 98 L 297 101 L 299 103 L 299 105 L 301 108 L 301 112 L 302 113 L 302 130 L 301 131 L 300 138 L 297 144 L 287 156 L 276 163 L 285 163 L 286 164 L 289 163 L 300 163 L 301 164 L 303 163 L 308 163 L 303 161 L 303 131 L 304 130 L 310 130 L 311 131 L 311 137 L 312 138 L 313 144 L 315 146 L 316 149 L 325 157 L 331 159 L 341 158 L 348 154 L 350 150 L 353 148 L 358 154 L 354 158 L 345 163 L 346 164 L 347 163 L 358 163 L 359 164 L 361 163 L 368 163 L 363 159 L 359 154 L 359 152 L 363 147 L 364 144 L 367 143 L 372 153 L 382 162 L 386 163 L 389 165 L 395 165 L 396 166 L 404 166 L 405 165 L 408 165 L 417 162 L 423 158 L 434 147 L 440 134 L 440 130 L 441 129 L 441 113 L 436 100 L 429 92 L 420 87 L 411 86 L 410 85 L 403 85 L 402 86 L 398 86 L 392 88 L 380 96 L 372 105 L 368 113 L 367 119 L 364 120 L 357 113 L 329 93 L 323 87 L 320 82 L 320 79 L 319 78 L 319 75 L 321 69 L 327 63 L 333 61 L 338 61 L 345 64 L 351 70 L 355 78 L 356 85 L 361 86 L 362 85 L 362 76 L 363 75 L 362 74 L 362 62 L 363 61 L 362 59 L 356 57 L 353 57 L 352 56 L 347 56 L 346 55 L 339 55 L 338 56 L 329 57 L 318 63 L 311 70 L 307 78 L 306 89 L 309 96 L 316 104 L 340 120 L 349 128 L 353 135 L 353 138 L 354 139 L 353 146 L 351 147 L 268 67 L 267 67 L 242 42 L 241 42 L 220 21 L 219 21 L 216 17 L 215 17 L 202 4 L 201 4 L 84 116 L 82 116 L 80 113 L 61 56 L 59 53 L 55 53 L 51 61 L 50 66 L 46 74 L 43 84 L 40 89 L 39 94 L 37 97 L 36 102 L 34 105 L 34 107 L 24 130 L 19 145 L 14 153 L 11 156 L 4 160 Z M 395 92 L 403 92 L 411 95 L 420 103 L 427 114 L 428 120 L 429 121 L 429 125 L 430 126 L 429 139 L 425 148 L 415 157 L 405 158 L 396 155 L 385 145 L 380 136 L 378 130 L 378 127 L 377 126 L 377 114 L 378 113 L 378 110 L 382 101 L 388 95 Z M 51 81 L 53 82 L 55 89 L 57 92 L 63 112 L 65 115 L 65 118 L 66 119 L 65 121 L 37 121 L 36 120 L 40 107 L 42 104 L 45 94 Z"/>
</svg>
